<?xml version="1.0" encoding="UTF-8" standalone="no"?>
<!-- Created with Inkscape (http://www.inkscape.org/) -->

<svg
   xmlns:dc="http://purl.org/dc/elements/1.1/"
   xmlns:cc="http://creativecommons.org/ns#"
   xmlns:rdf="http://www.w3.org/1999/02/22-rdf-syntax-ns#"
   xmlns:svg="http://www.w3.org/2000/svg"
   xmlns="http://www.w3.org/2000/svg"
   xmlns:sodipodi="http://sodipodi.sourceforge.net/DTD/sodipodi-0.dtd"
   xmlns:inkscape="http://www.inkscape.org/namespaces/inkscape"
   version="1.1"
   id="svg2"
   width="921.59998"
   height="518.40002"
   viewBox="0 0 921.59998 518.40002"
   sodipodi:docname="whitebackground.svg"
   inkscape:export-filename="C:\Users\Ocanath\Documents\Projects\VS_Projects\ConsoleApplication2\ConsoleApplication2\Image_lib\path4507_II.png"
   inkscape:export-xdpi="96"
   inkscape:export-ydpi="96"
   inkscape:version="0.92.1 r15371">
  <metadata
     id="metadata8">
    <rdf:RDF>
      <cc:Work
         rdf:about="">
        <dc:format>image/svg+xml</dc:format>
        <dc:type
           rdf:resource="http://purl.org/dc/dcmitype/StillImage" />
        <dc:title></dc:title>
      </cc:Work>
    </rdf:RDF>
  </metadata>
  <defs
     id="defs6" />
  <sodipodi:namedview
     pagecolor="#ffffff"
     bordercolor="#666666"
     borderopacity="1"
     objecttolerance="10"
     gridtolerance="10"
     guidetolerance="10"
     inkscape:pageopacity="0"
     inkscape:pageshadow="2"
     inkscape:window-width="1920"
     inkscape:window-height="1003"
     id="namedview4"
     showgrid="false"
     inkscape:zoom="1.0404045"
     inkscape:cx="709.16317"
     inkscape:cy="169.70332"
     inkscape:window-x="-9"
     inkscape:window-y="-9"
     inkscape:window-maximized="1"
     inkscape:current-layer="svg2" />
  <rect
     style="opacity:1;fill:#808080;fill-opacity:1;stroke:#808080;stroke-width:16.32057381;stroke-linecap:butt;stroke-linejoin:miter;stroke-miterlimit:4;stroke-dasharray:none;stroke-dashoffset:0;stroke-opacity:1"
     id="rect4511"
     width="701.67987"
     height="449.25171"
     x="116.45782"
     y="35.433514" />
  <path
     style="opacity:1;fill:#000000;fill-opacity:1;stroke:#000600;stroke-width:3.35068488;stroke-linecap:butt;stroke-linejoin:miter;stroke-miterlimit:4;stroke-dasharray:none;stroke-dashoffset:0;stroke-opacity:1"
     d="m 419.28055,451.62696 c -0.18114,-0.30273 -1.73071,-0.44684 -4.24223,-0.39451 -2.17627,0.0453 -4.07639,-0.0411 -4.22248,-0.19195 -0.14611,-0.15092 -1.46039,-0.27439 -2.92062,-0.27439 -1.46023,0 -2.65497,-0.17216 -2.65497,-0.38257 0,-0.34909 -3.33802,-0.83536 -7.19546,-1.04821 -0.84491,-0.0466 -1.67808,-0.23091 -1.8515,-0.40952 -0.17341,-0.17862 -1.12162,-0.32477 -2.10712,-0.32477 -0.98549,0 -1.89552,-0.17332 -2.02226,-0.38516 -0.12677,-0.21185 -0.8453,-0.49361 -1.59677,-0.62615 -3.22558,-0.5689 -6.56228,-1.39429 -6.85221,-1.69501 -0.17221,-0.17862 -0.83647,-0.32477 -1.47611,-0.32477 -0.63966,0 -1.29134,-0.21448 -1.4482,-0.47663 -0.16217,-0.27102 -0.80576,-0.3691 -1.49196,-0.22733 -0.66944,0.1383 -1.20678,0.0614 -1.20678,-0.17289 0,-0.2322 -0.4716,-0.42218 -1.04801,-0.42218 -0.57641,0 -1.04801,-0.16976 -1.04801,-0.37723 0,-0.20747 -0.93547,-0.5054 -2.0788,-0.66207 -1.14334,-0.15666 -2.192,-0.47406 -2.33038,-0.70531 -0.13835,-0.23125 -0.70091,-0.42046 -1.25009,-0.42046 -0.5492,0 -1.11513,-0.19485 -1.25763,-0.43301 -0.1425,-0.23816 -0.57807,-0.43421 -0.96795,-0.43568 -0.38987,-9e-4 -1.2492,-0.29375 -1.90961,-0.64951 -0.6604,-0.35578 -1.55645,-0.64686 -1.99122,-0.64686 -0.43477,0 -0.79049,-0.16995 -0.79049,-0.37767 0,-0.20772 -0.75457,-0.50231 -1.67683,-0.65463 -0.92225,-0.15233 -1.67682,-0.46952 -1.67682,-0.70487 0,-0.23534 -0.4716,-0.42789 -1.048,-0.42789 -0.57642,0 -1.04802,-0.17938 -1.04802,-0.3986 0,-0.21924 -0.56378,-0.52652 -1.25282,-0.68284 -0.68905,-0.15633 -1.36042,-0.46409 -1.49196,-0.68392 -0.13153,-0.21984 -0.69963,-0.3997 -1.26242,-0.3997 -0.5628,0 -1.02327,-0.17213 -1.02327,-0.38251 0,-0.37152 -1.56758,-1.05769 -2.20084,-0.96336 -0.17292,0.0258 -0.3144,-0.14803 -0.3144,-0.38619 0,-0.23815 -0.37728,-0.43301 -0.83841,-0.43301 -0.46113,0 -0.83841,-0.17937 -0.83841,-0.39861 0,-0.21923 -0.56593,-0.52699 -1.25762,-0.68392 -0.69168,-0.15692 -1.25762,-0.41872 -1.25762,-0.58178 0,-0.32254 -3.09906,-1.79979 -3.77572,-1.79979 -0.22898,0 -0.41633,-0.14888 -0.41633,-0.33086 0,-0.32211 -3.03637,-1.8342 -3.68318,-1.8342 -0.17808,0 -0.59572,-0.38972 -0.92808,-0.86603 -0.33236,-0.47631 -0.76994,-0.86602 -0.97241,-0.86602 -0.58659,0 -3.37557,-1.42865 -3.9832,-2.04038 -0.30467,-0.30673 -0.80326,-0.55769 -1.10797,-0.55769 -0.30471,0 -0.65642,-0.27567 -0.78159,-0.61259 -0.22052,-0.5936 -1.82039,-1.67368 -3.32057,-2.24173 -0.40348,-0.15278 -0.73361,-0.44991 -0.73361,-0.66029 0,-0.21038 -0.27562,-0.38251 -0.61247,-0.38251 -0.33687,0 -0.98702,-0.41526 -1.44479,-0.92279 -0.77058,-0.85438 -1.83794,-1.60692 -3.39241,-2.39185 -0.34585,-0.17462 -0.87808,-0.57198 -1.18276,-0.883 -0.30467,-0.31102 -0.77866,-0.5655 -1.05332,-0.5655 -0.27465,0 -0.85353,-0.48714 -1.28639,-1.08253 -0.43287,-0.5954 -1.00656,-1.08253 -1.27488,-1.08253 -0.26832,0 -1.1278,-0.682 -1.90994,-1.51555 -0.78215,-0.83354 -1.59861,-1.51554 -1.81436,-1.51554 -0.21575,0 -1.01496,-0.68199 -1.77605,-1.51555 -0.76107,-0.83355 -1.55946,-1.51553 -1.77421,-1.51553 -0.21475,0 -1.34866,-0.97428 -2.51981,-2.16508 -1.17115,-1.19078 -2.28365,-2.16506 -2.47224,-2.16506 -0.4874,0 -13.53624,-13.56039 -13.54675,-14.07783 -0.005,-0.23545 -1.13664,-1.57695 -2.51523,-2.98112 -1.3786,-1.40417 -2.50655,-2.73254 -2.50655,-2.95191 0,-0.21939 -0.66025,-1.04208 -1.46722,-1.82823 -0.80697,-0.78613 -1.46721,-1.61344 -1.46721,-1.83846 0,-0.22502 -0.56593,-0.96918 -1.25762,-1.65368 -0.69169,-0.68451 -1.25762,-1.46524 -1.25762,-1.73498 0,-0.26973 -0.4716,-0.91397 -1.04801,-1.43166 -0.5764,-0.51769 -1.04802,-1.19181 -1.04802,-1.49805 0,-0.30623 -0.37728,-0.83767 -0.8384,-1.18098 -0.46113,-0.34331 -0.83842,-0.84326 -0.83842,-1.11102 0,-0.26774 -0.39893,-0.85801 -0.88652,-1.31169 -0.48758,-0.45369 -1.05306,-1.21459 -1.25662,-1.69091 -0.39383,-0.92158 -1.28191,-2.45533 -1.62971,-2.81458 -0.3109,-0.32114 -1.22228,-1.85461 -1.54412,-2.59808 -0.15463,-0.35723 -0.4083,-0.74695 -0.56371,-0.86603 -0.38735,-0.29679 -2.45598,-3.93803 -2.7675,-4.87139 -0.13911,-0.41677 -0.41957,-0.75777 -0.62324,-0.75777 -0.20366,0 -0.37031,-0.38971 -0.37031,-0.86602 0,-0.47631 -0.1892,-0.86603 -0.42045,-0.86603 -0.23125,0 -0.74735,-0.77942 -1.14691,-1.73205 -0.39954,-0.95263 -0.87059,-1.73204 -1.04676,-1.73204 -0.17618,0 -0.32032,-0.19352 -0.32032,-0.43005 0,-0.73944 -1.43905,-3.90009 -1.77572,-3.90009 -0.17616,0 -0.32031,-0.19351 -0.32031,-0.43003 0,-0.73944 -1.43904,-3.90009 -1.77571,-3.90009 -0.17616,0 -0.32031,-0.38837 -0.32031,-0.86306 0,-1.06091 -1.33721,-4.33309 -1.77076,-4.33309 -0.17345,0 -0.43602,-0.77943 -0.5835,-1.73205 -0.14747,-0.95263 -0.38662,-1.73205 -0.53143,-1.73205 -0.3204,0 -1.15737,-1.94503 -1.53897,-3.57645 -0.15372,-0.65718 -0.44724,-1.30196 -0.65226,-1.43285 -0.20502,-0.13088 -0.37275,-0.7136 -0.37275,-1.29494 0,-0.58133 -0.16723,-1.05698 -0.37162,-1.05698 -0.20438,0 -0.49824,-0.8723 -0.65303,-1.93846 -0.15477,-1.06615 -0.45916,-2.05193 -0.6764,-2.19062 -0.21724,-0.13868 -0.39498,-0.7278 -0.39498,-1.30913 0,-0.58134 -0.16723,-1.05697 -0.37162,-1.05697 -0.20438,0 -0.49824,-0.87232 -0.65302,-1.93847 -0.15478,-1.06615 -0.45917,-2.05193 -0.67641,-2.19061 -0.21725,-0.13869 -0.39498,-0.79275 -0.39498,-1.45348 0,-0.66071 -0.13123,-1.33686 -0.29161,-1.50252 -0.35361,-0.36526 -0.56233,-1.24004 -0.84073,-3.52374 -0.11614,-0.95262 -0.38048,-1.91715 -0.58743,-2.14341 -0.20694,-0.22624 -0.37626,-0.91798 -0.37626,-1.53719 0,-0.61921 -0.18779,-1.3198 -0.41731,-1.55688 -0.22952,-0.23708 -0.54016,-1.93232 -0.69032,-3.76721 -0.15015,-1.83489 -0.40997,-3.33616 -0.57737,-3.33616 -0.1674,0 -0.43428,-1.023 -0.59306,-2.27332 -0.15879,-1.25032 -0.37486,-2.85788 -0.48015,-3.57235 -0.10528,-0.71447 -0.30657,-2.9066 -0.4473,-4.87139 -0.14072,-1.9648 -0.42027,-3.57236 -0.6212,-3.57236 -0.20094,0 -0.36535,-1.93705 -0.36535,-4.30457 0,-2.47426 -0.18281,-4.42127 -0.42994,-4.57904 -0.55833,-0.35643 -0.52271,-21.86028 0.0362,-21.86028 0.21926,0 0.39373,-1.91889 0.39373,-4.33013 0,-2.59808 0.16769,-4.33013 0.4192,-4.33013 0.23536,0 0.41922,-1.20281 0.41922,-2.7424 0,-1.50833 0.12857,-2.87523 0.28571,-3.03756 0.15716,-0.16231 0.2378,-1.36393 0.17922,-2.67024 -0.066,-1.47015 0.0648,-2.37511 0.34309,-2.37511 0.24727,0 0.44959,-0.76792 0.44959,-1.70649 0,-0.93857 0.16393,-1.81115 0.36428,-1.93905 0.20034,-0.1279 0.49628,-1.79567 0.65761,-3.70616 0.16134,-1.91048 0.46903,-3.47361 0.68375,-3.47361 0.21472,0 0.3904,-0.57307 0.3904,-1.27348 0,-0.70042 0.16779,-1.38061 0.37288,-1.51154 0.34036,-0.21728 0.75061,-2.04012 0.99748,-4.43202 0.0533,-0.51608 0.23833,-1.08442 0.41125,-1.26295 0.17293,-0.17853 0.31441,-0.77926 0.31441,-1.33497 0,-0.5557 0.16882,-1.01036 0.37518,-1.01036 0.20634,0 0.47068,-0.73071 0.58741,-1.62379 0.27869,-2.1321 0.78115,-3.85245 1.57537,-5.39375 0.20939,-0.40638 0.5027,-1.52679 0.65178,-2.48982 0.14908,-0.96304 0.43559,-1.75097 0.63669,-1.75097 0.2011,0 0.36563,-0.35492 0.36563,-0.7887 0,-0.43379 0.35994,-1.55308 0.79987,-2.48733 0.43993,-0.93424 0.69873,-1.86766 0.5751,-2.07428 -0.12363,-0.20663 -0.0592,-0.50003 0.14334,-0.65202 0.4895,-0.36748 1.41613,-2.10087 1.41613,-2.64908 0,-0.72087 1.4325,-3.90595 1.75672,-3.90595 0.16572,0 0.43139,-0.73071 0.59038,-1.6238 0.15899,-0.89309 0.41317,-1.72122 0.56485,-1.8403 0.38749,-0.30421 1.69931,-3.27963 1.69931,-3.8543 0,-0.2617 0.14415,-0.47583 0.32031,-0.47583 0.31184,0 1.77571,-3.13637 1.77571,-3.80449 0,-0.18395 0.3773,-0.61534 0.83842,-0.95865 0.46113,-0.34331 0.83841,-0.7953 0.83841,-1.00442 0,-0.44826 1.31939,-3.44479 1.65498,-3.75872 0.41416,-0.38743 1.29784,-1.93022 1.55012,-2.70633 0.13549,-0.41677 0.41297,-0.75776 0.61663,-0.75776 0.20369,0 0.37033,-0.27837 0.37033,-0.61859 0,-0.34023 0.24635,-0.87608 0.54745,-1.19079 0.30111,-0.3147 0.68047,-0.86448 0.84304,-1.22171 0.16256,-0.35724 0.62361,-1.15633 1.02456,-1.77577 1.56273,-2.41435 2.39547,-3.6458 2.60573,-3.8534 0.30094,-0.29713 1.21011,-1.80859 1.56279,-2.59807 0.15957,-0.35724 0.7243,-1.13467 1.25495,-1.72763 0.53063,-0.59296 0.96479,-1.28065 0.96479,-1.5282 0,-0.24756 0.37729,-0.73099 0.83842,-1.0743 0.46112,-0.34331 0.8384,-0.83701 0.8384,-1.09711 0,-0.2601 0.56594,-1.03297 1.25763,-1.71747 0.69168,-0.68451 1.25761,-1.43198 1.25761,-1.66107 0,-0.22908 0.66024,-1.07886 1.46721,-1.88838 0.80697,-0.80954 1.46722,-1.66342 1.46722,-1.89754 0,-0.2341 1.13186,-1.55203 2.51524,-2.92874 1.38339,-1.37671 2.51524,-2.68828 2.51524,-2.9146 0,-0.50615 12.65767,-13.60789 13.14667,-13.60789 0.19309,0 1.27464,-0.97428 2.40345,-2.16507 1.12881,-1.19078 2.21752,-2.16506 2.41937,-2.16506 0.20185,0 1.09884,-0.77925 1.9933,-1.73167 0.89446,-0.95241 1.82922,-1.73184 2.07724,-1.73205 0.24801,-2.1e-4 0.89398,-0.48752 1.43549,-1.08291 0.5415,-0.5954 1.15603,-1.08253 1.36563,-1.08253 0.2096,0 0.98905,-0.64666 1.73211,-1.43702 0.74308,-0.79036 1.6234,-1.57743 1.95628,-1.74904 1.37758,-0.71016 4.90091,-3.12652 5.42612,-3.72128 0.37806,-0.42815 1.87151,-1.33988 2.62003,-1.59949 0.40349,-0.13994 0.73361,-0.41343 0.73361,-0.60776 0,-0.19434 0.42445,-0.49177 0.9432,-0.66096 0.51877,-0.1692 1.23736,-0.65643 1.59687,-1.08273 0.3595,-0.42631 1.1535,-0.904693 1.76443,-1.063077 0.61093,-0.158384 1.32648,-0.556422 1.5901,-0.884529 0.26362,-0.328107 1.45037,-1.091994 2.63723,-1.697527 2.26396,-1.155072 3.69213,-2.004928 4.04433,-2.406647 0.33777,-0.385246 3.22828,-1.709488 3.73141,-1.709488 0.25336,0 0.46066,-0.14889 0.46066,-0.330865 0,-0.347755 3.05987,-1.834199 3.77572,-1.834199 0.22898,0 0.41634,-0.194855 0.41634,-0.433012 0,-0.238157 0.37728,-0.433012 0.8384,-0.433012 0.46113,0 0.83842,-0.179374 0.83842,-0.398608 0,-0.219234 0.57354,-0.528728 1.27454,-0.687764 0.701,-0.159036 2.53128,-0.953942 4.0673,-1.766456 1.53601,-0.812514 3.13186,-1.477298 3.54633,-1.477298 0.41445,0 0.75356,-0.169952 0.75356,-0.377671 0,-0.207718 0.75457,-0.502305 1.67682,-0.654636 0.92225,-0.152331 1.67682,-0.469519 1.67682,-0.704861 0,-0.235342 0.46048,-0.427896 1.02327,-0.427896 0.5628,0 1.12971,-0.1779 1.25982,-0.395334 0.13009,-0.217435 0.98913,-0.526673 1.90896,-0.687197 0.91984,-0.160524 1.77888,-0.469762 1.90898,-0.687196 0.13009,-0.217435 0.697,-0.395335 1.25981,-0.395335 0.56279,0 1.02328,-0.176571 1.02328,-0.39238 0,-0.215808 0.94321,-0.526377 2.09603,-0.690152 1.15281,-0.163775 2.09603,-0.474343 2.09603,-0.690152 0,-0.215809 0.66025,-0.392379 1.46722,-0.392379 0.80697,0 1.46721,-0.180835 1.46721,-0.401855 0,-0.22102 1.04002,-0.536077 2.31117,-0.700127 1.27114,-0.16405 2.41413,-0.470354 2.53997,-0.680676 0.12585,-0.210324 0.78361,-0.382405 1.46169,-0.382405 0.67808,0 1.23287,-0.178231 1.23287,-0.396068 0,-0.217837 1.41482,-0.533015 3.14404,-0.700393 1.72923,-0.167378 3.14405,-0.476287 3.14405,-0.686464 0,-0.210176 0.74343,-0.382138 1.65208,-0.382138 0.90864,0 1.75744,-0.176099 1.88623,-0.39133 0.12877,-0.215232 2.21497,-0.53079 4.63599,-0.701243 2.42104,-0.170452 4.40186,-0.481493 4.40186,-0.691202 0,-0.209709 1.18845,-0.381288 2.641,-0.381288 1.55386,0 2.85669,-0.222806 3.16499,-0.541266 0.76136,-0.786442 38.35049,-0.786442 39.11189,0 0.30726,0.317374 1.60622,0.541266 3.14027,0.541266 1.43894,0 2.7202,0.173725 2.84725,0.386055 0.12704,0.212331 2.12043,0.525745 4.42975,0.696476 2.30932,0.170731 4.30271,0.484145 4.42975,0.696476 0.12705,0.212331 0.97443,0.386056 1.88308,0.386056 0.90864,0 1.65208,0.169678 1.65208,0.377063 0,0.207384 1.31616,0.511025 2.9248,0.674757 1.60864,0.163732 3.03459,0.481193 3.16878,0.705469 0.13419,0.224275 0.78765,0.407774 1.45212,0.407774 0.66447,0 1.31558,0.179566 1.44689,0.399035 0.13131,0.219469 1.46295,0.534453 2.95919,0.699963 1.49622,0.165511 2.72042,0.473084 2.72042,0.683497 0,0.210413 0.4716,0.382568 1.04801,0.382568 0.5764,0 1.04802,0.17273 1.04802,0.383847 0,0.211115 0.84449,0.514657 1.87665,0.674537 1.03217,0.15988 1.98651,0.474288 2.12077,0.698685 0.13426,0.224396 0.70458,0.407994 1.26739,0.407994 0.56279,0 1.02327,0.172731 1.02327,0.383846 0,0.211116 0.84449,0.514658 1.87666,0.674538 1.03215,0.15988 1.98649,0.474287 2.12077,0.698684 0.13426,0.224398 0.70458,0.407994 1.26738,0.407994 0.56281,0 1.02328,0.192554 1.02328,0.427896 0,0.235342 0.75456,0.55253 1.67682,0.704861 0.92226,0.152331 1.67681,0.446918 1.67681,0.654636 0,0.207719 0.3492,0.377671 0.77598,0.377671 0.42678,0 1.66295,0.487139 2.74702,1.082531 1.08408,0.595392 2.33836,1.082531 2.78727,1.082531 0.44893,0 0.81623,0.194856 0.81623,0.433013 0,0.238157 0.22452,0.433013 0.49893,0.433013 0.64748,0 5.95583,2.714787 6.1385,3.139341 0.0768,0.178618 0.5013,0.324759 0.94321,0.324759 0.44192,0 0.80348,0.194856 0.80348,0.433013 0,0.238157 0.20729,0.433013 0.46065,0.433013 0.50314,0 3.39363,1.324242 3.73141,1.709488 0.35221,0.401719 1.78038,1.251575 4.04434,2.406647 1.18686,0.605533 2.3789,1.376014 2.64899,1.712177 0.27011,0.336166 1.00734,0.728332 1.63832,0.871481 0.63097,0.14315 1.41416,0.642815 1.74039,1.110365 0.32626,0.46755 0.82102,0.85009 1.09951,0.85009 0.27848,0 0.7556,0.24357 1.06027,0.54127 0.30467,0.29769 1.04704,0.80357 1.64972,1.12416 0.60267,0.3206 1.54587,1.01263 2.09601,1.53785 0.55015,0.52522 1.28324,1.09319 1.62908,1.26217 0.34584,0.16898 1.19474,0.69265 1.88643,1.16372 0.69169,0.47107 1.54058,0.99129 1.88643,1.15605 0.34584,0.16476 1.01209,0.75147 1.48056,1.30381 0.46846,0.55233 1.04454,1.00424 1.28018,1.00424 0.23564,0 1.06837,0.68199 1.85051,1.51554 0.78216,0.83355 1.65435,1.51555 1.93824,1.51555 0.28389,0 0.85996,0.45099 1.28019,1.00221 0.42021,0.55122 1.32995,1.37936 2.02165,1.84031 0.69168,0.46094 1.91786,1.53855 2.72483,2.39468 0.80697,0.85613 1.79481,1.73926 2.19521,1.96252 1.0481,0.58442 13.73461,13.5991 13.73461,14.0899 0,0.22617 0.80173,1.24004 1.78162,2.25304 0.97989,1.01299 2.6269,2.90154 3.66001,4.19676 1.03312,1.29523 2.02349,2.4199 2.20083,2.49929 0.17735,0.0794 0.32245,0.38393 0.32245,0.67676 0,0.29284 0.56593,1.09247 1.25761,1.77698 0.6917,0.6845 1.25762,1.40992 1.25762,1.61203 0,0.20211 0.37881,0.79894 0.84179,1.32628 1.58378,1.80395 2.93105,3.68171 2.93105,4.08517 0,0.2218 0.47161,0.86092 1.04802,1.42026 0.57641,0.55934 1.04802,1.28142 1.04802,1.60462 0,0.3232 0.28297,0.69979 0.62881,0.83687 0.34584,0.13709 0.6288,0.61811 0.6288,1.06895 0,0.45083 0.1798,0.81969 0.39954,0.81969 0.21976,0 0.73136,0.73071 1.13691,1.6238 0.40556,0.89309 0.98034,1.88129 1.27729,2.19599 0.29695,0.31471 0.53991,0.85056 0.53991,1.19079 0,0.34022 0.16664,0.61859 0.37031,0.61859 0.20368,0 0.48116,0.34099 0.61664,0.75776 0.23941,0.73648 1.10473,2.26883 1.52828,2.70633 0.40068,0.41387 1.25806,1.95815 1.98338,3.57236 0.40131,0.89309 0.87378,1.6238 1.04995,1.6238 0.17618,0 0.32032,0.19352 0.32032,0.43004 0,0.73943 1.43906,3.90008 1.77571,3.90008 0.17618,0 0.32032,0.19352 0.32032,0.43004 0,0.7335 1.43772,3.90009 1.77076,3.90009 0.17345,0 0.43602,0.77943 0.58349,1.73205 0.14747,0.95263 0.43267,1.73205 0.63376,1.73205 0.2011,0 0.36563,0.38971 0.36563,0.86602 0,0.47632 0.17365,0.86603 0.3859,0.86603 0.21225,0 0.51776,0.6201 0.67891,1.378 0.16116,0.7579 0.64775,2.03039 1.08132,2.82775 0.43358,0.79736 0.78831,1.65795 0.78831,1.91241 0,0.25446 0.3022,1.1741 0.67155,2.04364 1.24217,2.92435 1.37469,3.30798 1.66297,4.81436 0.15802,0.82573 0.45198,1.84873 0.65323,2.27332 0.20123,0.42459 0.53122,1.12047 0.73328,1.54641 0.20205,0.42594 0.50143,1.59404 0.66527,2.5958 0.16385,1.00177 0.47015,1.93134 0.68065,2.06572 0.2105,0.13438 0.38273,0.8174 0.38273,1.51781 0,0.70042 0.17506,1.27348 0.38903,1.27348 0.21398,0 0.51899,1.07428 0.67781,2.3873 0.15882,1.31301 0.45536,2.49364 0.65897,2.62362 0.20361,0.12999 0.37022,0.99277 0.37022,1.91729 0,0.92451 0.17764,1.79434 0.39477,1.93296 0.21712,0.1386 0.52446,1.61152 0.68297,3.27315 0.15851,1.66161 0.45247,3.02112 0.65324,3.02112 0.20077,0 0.36504,0.96278 0.36504,2.13951 0,1.17673 0.16791,2.2467 0.37314,2.37772 0.20524,0.13102 0.50882,2.38336 0.67463,5.0052 0.16582,2.62184 0.46952,4.76699 0.67487,4.76699 0.20537,0 0.37339,2.14341 0.37339,4.76314 0,2.72435 0.1707,4.76314 0.39881,4.76314 0.55831,0 0.58336,21.50775 0.0255,21.8639 -0.24017,0.15333 -0.42426,2.1385 -0.42426,4.57542 0,2.36752 -0.16086,4.30457 -0.35746,4.30457 -0.19661,0 -0.48588,1.99727 -0.64282,4.43838 -0.33451,5.20281 -0.41526,5.82838 -0.80414,6.23006 -0.16039,0.16567 -0.29161,1.24302 -0.29161,2.39411 0,1.15109 -0.16426,2.09289 -0.36503,2.09289 -0.20078,0 -0.49473,1.35951 -0.65324,3.02114 -0.15852,1.66161 -0.46585,3.13453 -0.68298,3.27315 -0.21712,0.13861 -0.39477,1.01994 -0.39477,1.95851 0,0.93857 -0.16237,1.7065 -0.36081,1.7065 -0.19846,0 -0.4764,1.00806 -0.61767,2.24015 -0.14127,1.23208 -0.45051,2.44019 -0.68721,2.68468 -0.23668,0.24449 -0.43033,0.97862 -0.43033,1.6314 0,0.65278 -0.17776,1.30035 -0.395,1.43904 -0.21723,0.13868 -0.52161,1.12446 -0.6764,2.19061 -0.15479,1.06615 -0.44865,1.93847 -0.65304,1.93847 -0.20437,0 -0.37159,0.47563 -0.37159,1.05697 0,0.58133 -0.17775,1.17045 -0.39499,1.30913 -0.21724,0.13869 -0.52163,1.12447 -0.67641,2.19062 -0.15478,1.06616 -0.44865,1.93846 -0.65303,1.93846 -0.20438,0 -0.3716,0.47565 -0.3716,1.05698 0,0.58134 -0.16776,1.16406 -0.37278,1.29494 -0.20502,0.13089 -0.49853,0.77567 -0.65226,1.43285 -0.3816,1.63142 -1.21854,3.57645 -1.53896,3.57645 -0.14481,0 -0.38396,0.77942 -0.53142,1.73205 -0.14747,0.95262 -0.45455,1.73205 -0.68239,1.73205 -0.22784,0 -0.41426,0.38971 -0.41426,0.86603 0,0.47631 -0.16453,0.86602 -0.36563,0.86602 -0.20109,0 -0.48628,0.77942 -0.63375,1.73205 -0.14747,0.95263 -0.41004,1.73205 -0.58351,1.73205 -0.33302,0 -1.77075,3.16659 -1.77075,3.90009 0,0.23652 -0.14414,0.43003 -0.32031,0.43003 -0.33667,0 -1.77572,3.16065 -1.77572,3.90009 0,0.23653 -0.14259,0.43005 -0.31687,0.43005 -0.17428,0 -0.57643,0.63328 -0.8937,1.40728 -0.31725,0.77401 -0.79564,1.60215 -1.06311,1.8403 -0.52566,0.46808 -1.91837,3.35403 -1.91837,3.97523 0,0.20912 -0.37035,0.65595 -0.82299,0.99293 -0.45265,0.337 -0.93494,1.13923 -1.07178,1.78275 -0.13683,0.64352 -0.61538,1.51271 -1.06344,1.93156 -0.44806,0.41885 -0.81464,1.01393 -0.81464,1.32242 0,0.30849 -0.25003,0.71672 -0.55562,0.90717 -0.30559,0.19045 -0.68495,0.63856 -0.84303,0.9958 -0.27607,0.62389 -0.77574,1.43123 -2.57299,4.15733 -0.4552,0.69042 -1.1626,1.57046 -1.57204,1.95563 -0.40942,0.38517 -0.74442,0.92231 -0.74442,1.19365 0,0.27133 -0.47159,0.9169 -1.04801,1.43459 -0.5764,0.51769 -1.04801,1.16442 -1.04801,1.43719 0,0.27278 -0.4716,0.9536 -1.048,1.51294 -0.57642,0.55935 -1.04802,1.24616 -1.04802,1.52626 0,0.2801 -0.56592,0.95728 -1.25763,1.50483 -0.69168,0.54755 -1.25761,1.2612 -1.25761,1.58589 0,0.3247 -1.13186,1.72375 -2.51524,3.10903 -1.38338,1.38527 -2.51523,2.70326 -2.51523,2.92886 0,0.50569 -14.46607,15.47211 -15.19511,15.72067 -0.28881,0.0985 -1.4584,1.12163 -2.5991,2.2737 -1.14069,1.15206 -2.2163,2.09466 -2.39024,2.09466 -0.17394,0 -0.95749,0.68199 -1.74121,1.51554 -0.78373,0.83355 -1.60881,1.51555 -1.83353,1.51555 -0.22472,0 -0.85164,0.48713 -1.39315,1.08252 -0.5415,0.5954 -1.22095,1.08254 -1.50987,1.08254 -0.28891,0 -0.89626,0.48713 -1.34967,1.08253 -0.45341,0.59539 -1.13326,1.08253 -1.5108,1.08253 -0.37754,0 -0.79501,0.29228 -0.92773,0.64952 -0.13272,0.35723 -0.4712,0.64952 -0.75218,0.64952 -0.28099,0 -0.95394,0.48714 -1.49545,1.08253 -0.54151,0.59539 -1.23464,1.08253 -1.54029,1.08253 -0.30565,0 -0.55574,0.18173 -0.55574,0.40383 0,0.22211 -0.42445,0.54227 -0.9432,0.71146 -0.51877,0.1692 -1.22619,0.6416 -1.57203,1.04978 -0.34584,0.40817 -1.10041,0.89532 -1.67682,1.08253 -0.57641,0.18721 -1.35311,0.70223 -1.726,1.14447 -0.37289,0.44225 -0.87818,0.80409 -1.12287,0.80409 -0.24469,0 -0.69417,0.24415 -0.99884,0.54255 -0.30468,0.2984 -1.63864,1.10106 -2.96439,1.78367 -1.32574,0.68262 -2.41043,1.41275 -2.41043,1.62252 0,0.20975 -0.18734,0.38138 -0.41633,0.38138 -0.71586,0 -3.77572,1.48644 -3.77572,1.8342 0,0.18198 -0.18735,0.33086 -0.41633,0.33086 -0.67666,0 -3.77573,1.47725 -3.77573,1.79979 0,0.16306 -0.56593,0.42486 -1.25762,0.58178 -0.69169,0.15693 -1.25761,0.46469 -1.25761,0.68392 0,0.21924 -0.37729,0.39861 -0.83842,0.39861 -0.46112,0 -0.8384,0.19486 -0.8384,0.43301 0,0.23816 -0.14149,0.41194 -0.31441,0.38619 -0.63326,-0.0943 -2.20083,0.59184 -2.20083,0.96336 0,0.21038 -0.46048,0.38251 -1.02327,0.38251 -0.56281,0 -1.1309,0.17986 -1.26243,0.3997 -0.13153,0.21983 -0.80292,0.52759 -1.49196,0.68392 -0.68905,0.15632 -1.2528,0.4636 -1.2528,0.68284 0,0.21922 -0.47161,0.3986 -1.04802,0.3986 -0.57641,0 -1.04802,0.19255 -1.04802,0.42789 0,0.23535 -0.75457,0.55254 -1.67681,0.70487 -0.92226,0.15232 -1.67683,0.44691 -1.67683,0.65463 0,0.20772 -0.37729,0.37767 -0.83841,0.37767 -0.46113,0 -0.83841,0.17273 -0.83841,0.38385 0,0.21112 -0.8445,0.51466 -1.87665,0.67454 -1.03217,0.15987 -1.98652,0.47428 -2.12078,0.69868 -0.13426,0.2244 -0.70458,0.40799 -1.26739,0.40799 -0.5628,0 -1.02327,0.18084 -1.02327,0.40185 0,0.22103 -1.03753,0.53577 -2.30563,0.69942 -1.26809,0.16366 -2.30563,0.44785 -2.30563,0.63153 0,0.31593 -1.58523,0.76016 -3.66502,1.02704 -0.5171,0.0663 -1.06731,0.25197 -1.22268,0.41246 -0.15538,0.1605 -0.72266,0.2918 -1.26064,0.2918 -0.53799,0 -0.97815,0.19486 -0.97815,0.43302 0,0.23816 -0.74345,0.43301 -1.65209,0.43301 -0.90865,0 -1.76187,0.18349 -1.89606,0.40778 -0.1342,0.22427 -1.56014,0.54173 -3.16879,0.70546 -1.60863,0.16374 -2.92479,0.46738 -2.92479,0.67476 0,0.20739 -0.72313,0.37706 -1.60697,0.37706 -0.88382,0 -1.74846,0.14615 -1.92143,0.32477 -0.17298,0.17861 -1.10048,0.37643 -2.0611,0.43959 -4.38948,0.28863 -6.98667,0.63846 -6.98667,0.94106 0,0.18121 -1.93359,0.47503 -4.29686,0.65294 -2.36327,0.17791 -5.42871,0.41443 -6.81209,0.52561 -6.21679,0.49962 -25.29728,0.60553 -25.57464,0.14195 z m 23.07699,-3.05532 c 0.15218,-0.25433 0.87072,-0.41818 1.59677,-0.36411 2.41369,0.17979 12.01951,-0.57138 12.25083,-0.958 0.12523,-0.2093 1.24296,-0.38054 2.48383,-0.38054 1.24088,0 2.3588,-0.17157 2.48428,-0.38126 0.12545,-0.2097 1.83367,-0.51941 3.79603,-0.68825 1.96234,-0.16885 3.67405,-0.48442 3.80381,-0.70127 0.12974,-0.21686 0.7907,-0.39428 1.46878,-0.39428 0.67808,0 1.23287,-0.16688 1.23287,-0.37083 0,-0.20396 1.36766,-0.50159 3.03925,-0.66141 1.67158,-0.15981 3.10212,-0.48008 3.17898,-0.71169 0.0768,-0.23163 0.78425,-0.42113 1.57201,-0.42113 0.78777,0 1.43229,-0.17657 1.43229,-0.39238 0,-0.21582 0.98285,-0.53201 2.1841,-0.70267 1.20126,-0.17065 2.4746,-0.45848 2.82964,-0.63962 1.55516,-0.79344 2.84083,-1.26626 4.19503,-1.54277 1.37226,-0.28021 1.74213,-0.42554 3.78092,-1.4857 0.458,-0.23816 1.17651,-0.43301 1.5967,-0.43301 0.42018,0 1.13015,-0.28609 1.5777,-0.63575 0.44756,-0.34966 1.23818,-0.64195 1.75696,-0.64953 0.51876,-0.007 0.94321,-0.19979 0.94321,-0.42715 0,-0.22736 0.7074,-0.54776 1.57202,-0.71198 0.86461,-0.16422 1.66633,-0.42677 1.78162,-0.58345 0.27044,-0.36754 3.15444,-1.75529 3.64783,-1.75529 0.64009,0 2.63352,-1.06384 2.63698,-1.40728 0.002,-0.17862 0.30429,-0.32477 0.6722,-0.32477 0.73991,0 3.23313,-1.32867 3.45326,-1.8403 0.0768,-0.17861 0.42504,-0.32476 0.77373,-0.32476 0.7129,0 3.2034,-1.34079 3.41833,-1.8403 0.0768,-0.17862 0.42503,-0.32476 0.77373,-0.32476 0.69844,0 2.94321,-1.20712 3.82486,-2.0568 0.3089,-0.2977 0.83112,-0.54127 1.16049,-0.54127 0.32938,0 0.59888,-0.1489 0.59888,-0.33086 0,-0.18198 0.7074,-0.67002 1.57201,-1.08454 1.66531,-0.79839 3.11109,-1.66846 3.45845,-2.08131 0.11528,-0.13702 0.8664,-0.62415 1.66915,-1.08254 0.80274,-0.45837 1.71227,-1.07698 2.02116,-1.37468 0.3089,-0.29769 0.78948,-0.54127 1.06796,-0.54127 0.27848,0 0.77824,-0.3897 1.11061,-0.86602 0.33236,-0.47631 0.81273,-0.86603 1.06749,-0.86603 0.25475,0 0.90623,-0.48713 1.44774,-1.08252 0.54151,-0.5954 1.24055,-1.08254 1.55346,-1.08254 0.31289,0 0.67747,-0.29228 0.81018,-0.64952 0.13272,-0.35723 0.52961,-0.64951 0.88198,-0.64951 0.35239,0 1.07776,-0.48714 1.61197,-1.08254 0.53419,-0.59539 1.13602,-1.08253 1.33741,-1.08253 0.20138,0 0.80919,-0.48714 1.3507,-1.08253 0.54151,-0.59539 1.16843,-1.08253 1.39315,-1.08253 0.22472,0 1.04981,-0.68199 1.83352,-1.51554 0.78373,-0.83356 1.60203,-1.51555 1.81846,-1.51555 0.21641,0 1.33919,-0.97172 2.49505,-2.15938 1.15585,-1.18766 2.10156,-2.02626 2.10156,-1.86356 0,0.16272 3.30124,-3.09877 7.3361,-7.24773 4.03485,-4.14896 7.33609,-7.7078 7.33609,-7.90852 0,-0.20072 1.13185,-1.52324 2.51524,-2.93893 1.38338,-1.41569 2.51523,-2.78313 2.51523,-3.03875 0,-0.25563 0.66025,-1.06856 1.46722,-1.80653 0.80697,-0.73797 1.46722,-1.56423 1.46722,-1.83613 0,-0.2719 0.47161,-0.952 1.04802,-1.51135 0.57641,-0.55935 1.04801,-1.248 1.04801,-1.53037 0,-0.28236 0.47161,-0.87922 1.04802,-1.32634 0.5764,-0.44712 1.04801,-1.05012 1.04801,-1.34 0,-0.28989 0.43351,-0.97486 0.96336,-1.52216 0.52987,-0.54731 1.09458,-1.28687 1.25495,-1.64349 0.35669,-0.79315 1.26554,-2.30203 1.56423,-2.59693 0.20332,-0.20076 0.70055,-0.93339 2.61522,-3.85339 0.40618,-0.61945 0.85262,-1.46725 0.99211,-1.88402 0.13949,-0.41678 0.3998,-0.75778 0.57848,-0.75778 0.17868,0 0.45363,-0.53585 0.61099,-1.19078 0.15737,-0.65493 0.62775,-1.5805 1.04528,-2.05681 0.41753,-0.47632 0.90222,-1.35317 1.07708,-1.94856 0.17485,-0.59539 0.65321,-1.32634 1.063,-1.62434 0.40979,-0.29799 0.86932,-1.12612 1.02118,-1.84029 0.15185,-0.71419 0.40527,-1.2985 0.56311,-1.2985 0.31226,0 1.74241,-3.20115 1.74241,-3.90009 0,-0.23653 0.14414,-0.43005 0.32032,-0.43005 0.33274,0 1.77571,-3.15677 1.77571,-3.88471 0,-0.22808 0.4716,-1.28723 1.04801,-2.35368 0.5764,-1.06645 1.04802,-2.2425 1.04802,-2.61344 0,-0.37095 0.18863,-0.67444 0.4192,-0.67444 0.23056,0 0.4192,-0.48714 0.4192,-1.08253 0,-0.59539 0.18642,-1.08254 0.41425,-1.08254 0.22784,0 0.53492,-0.77942 0.68239,-1.73205 0.14748,-0.95262 0.38662,-1.73205 0.53144,-1.73205 0.34025,0 1.18194,-2.01714 1.5358,-3.68061 0.3696,-1.73749 1.16698,-3.6806 1.51039,-3.6806 0.15264,0 0.41271,-1.01521 0.57792,-2.25604 0.16521,-1.24082 0.46589,-2.6048 0.66814,-3.03108 0.20227,-0.42628 0.56699,-1.17965 0.81051,-1.67415 0.24351,-0.49449 0.55275,-1.85848 0.6872,-3.03108 0.13445,-1.1726 0.40682,-2.132 0.60527,-2.132 0.19845,0 0.36081,-0.66576 0.36081,-1.47946 0,-0.8137 0.18347,-1.54442 0.4077,-1.6238 0.22423,-0.0794 0.53428,-1.55704 0.689,-3.28368 0.15473,-1.72663 0.44287,-3.13934 0.64032,-3.13934 0.19745,0 0.35901,-0.74045 0.35901,-1.64544 0,-0.905 0.18797,-1.83962 0.41772,-2.07694 0.22974,-0.23731 0.54096,-2.22483 0.69158,-4.41673 0.15062,-2.19188 0.43425,-3.98525 0.63029,-3.98525 0.19604,0 0.35644,-1.15289 0.35644,-2.56198 0,-1.6647 0.18352,-2.62519 0.524,-2.74241 0.40901,-0.14081 0.52401,-4.51582 0.52401,-19.93297 0,-15.22468 -0.12012,-19.87664 -0.52401,-20.29387 -0.3083,-0.31847 -0.524,-1.66426 -0.524,-3.26928 0,-1.50039 -0.1604,-2.72798 -0.35644,-2.72798 -0.19604,0 -0.47967,-1.79336 -0.63029,-3.98525 -0.15062,-2.19189 -0.46184,-4.17941 -0.69158,-4.41673 -0.22975,-0.23731 -0.41772,-1.16043 -0.41772,-2.05137 0,-0.89094 -0.16385,-1.72449 -0.36412,-1.85235 -0.20027,-0.12784 -0.49466,-1.60076 -0.65419,-3.27315 -0.15955,-1.67237 -0.4673,-3.04069 -0.6839,-3.04069 -0.2166,0 -0.39382,-0.68199 -0.39382,-1.51555 0,-0.83355 -0.16236,-1.51554 -0.36081,-1.51554 -0.19845,0 -0.47082,-0.9594 -0.60527,-2.132 -0.13445,-1.1726 -0.44369,-2.53659 -0.6872,-3.03109 -0.24352,-0.4945 -0.63138,-1.28615 -0.86195,-1.75924 -0.23056,-0.47308 -0.42037,-1.30122 -0.42179,-1.8403 -8.7e-4,-0.53908 -0.28439,-1.53828 -0.62881,-2.22043 -0.34442,-0.68216 -0.62623,-1.60772 -0.62623,-2.05682 0,-0.44908 -0.16454,-0.81653 -0.36563,-0.81653 -0.20109,0 -0.4876,-0.78793 -0.63668,-1.75095 -0.25067,-1.61916 -0.94979,-3.36029 -1.55725,-3.87821 -0.13966,-0.11908 -0.38402,-0.94721 -0.54301,-1.8403 -0.15898,-0.89309 -0.46916,-1.62379 -0.68927,-1.62379 -0.22011,0 -0.40022,-0.48715 -0.40022,-1.08254 0,-0.59539 -0.16764,-1.08253 -0.37255,-1.08253 -0.2049,0 -0.49641,-0.68199 -0.6478,-1.51554 -0.15139,-0.83356 -0.40819,-1.51707 -0.57067,-1.51893 -0.30585,-0.004 -1.34341,-2.07182 -1.34341,-2.67805 0,-0.67502 -1.46142,-3.81376 -1.77571,-3.81376 -0.17618,0 -0.32032,-0.21412 -0.32032,-0.47582 0,-0.5197 -1.28203,-3.50541 -1.65498,-3.8543 -0.48196,-0.45085 -1.9497,-3.18022 -2.32855,-4.33013 -0.39625,-1.20267 -0.90317,-2.03865 -1.51015,-2.49036 -0.4004,-0.29799 -0.85226,-1.12613 -1.00412,-1.8403 -0.15185,-0.71418 -0.43293,-1.2985 -0.62461,-1.2985 -0.19168,0 -0.75205,-0.86108 -1.24529,-1.91352 -0.49322,-1.05243 -1.17031,-2.148 -1.50461,-2.43459 -0.33431,-0.28658 -0.60783,-0.79561 -0.60783,-1.13116 0,-0.33555 -0.28296,-0.72225 -0.62881,-0.85933 -0.34585,-0.13709 -0.62881,-0.47396 -0.62881,-0.74861 0,-0.27465 -0.4716,-1.02472 -1.04801,-1.66682 -0.57642,-0.6421 -1.04802,-1.37083 -1.04802,-1.61938 0,-0.24855 -0.17593,-0.45191 -0.39095,-0.45191 -0.21504,0 -0.5206,-0.42192 -0.67905,-0.9376 -0.15845,-0.51568 -0.7371,-1.40139 -1.28587,-1.96824 -0.54878,-0.56685 -0.99777,-1.20725 -0.99777,-1.42313 0,-0.21585 -0.66025,-1.05483 -1.46722,-1.86435 -0.80697,-0.80954 -1.46722,-1.62337 -1.46722,-1.80852 0,-0.43982 -2.16798,-3.12936 -4.92567,-6.11065 -1.21046,-1.30861 -2.20083,-2.53026 -2.20083,-2.71477 0,-0.49594 -13.4497,-14.34964 -13.93119,-14.34964 -0.2262,0 -1.2968,-0.97428 -2.37912,-2.16507 -1.08232,-1.19078 -2.16962,-2.16506 -2.41622,-2.16506 -0.24661,0 -1.1802,-0.77925 -2.07467,-1.73167 -0.89446,-0.95241 -1.77602,-1.73183 -1.95901,-1.73205 -0.18297,-2.1e-4 -0.8413,-0.48752 -1.46293,-1.08291 -0.62163,-0.5954 -1.29365,-1.08253 -1.4934,-1.08253 -0.19973,0 -0.7341,-0.48714 -1.18751,-1.08254 -0.45341,-0.59539 -1.0644,-1.08253 -1.35778,-1.08253 -0.29338,0 -0.87485,-0.38971 -1.29217,-0.86602 -0.41731,-0.47632 -0.92921,-0.86603 -1.13757,-0.86603 -0.34473,0 -3.60457,-2.44813 -4.1025,-3.08098 -0.11527,-0.14652 -0.63404,-0.40322 -1.15282,-0.57044 -0.51876,-0.16723 -0.94321,-0.48578 -0.94321,-0.70788 0,-0.22211 -0.28296,-0.40384 -0.6288,-0.40384 -0.34585,0 -0.62881,-0.19485 -0.62881,-0.43301 0,-0.23816 -0.3832,-0.43301 -0.85157,-0.43301 -0.46836,0 -0.96016,-0.29229 -1.09286,-0.64952 -0.13272,-0.35724 -0.47485,-0.64952 -0.76029,-0.64952 -0.28544,0 -0.84507,-0.37219 -1.24362,-0.82708 -0.39855,-0.4549 -1.22763,-0.95749 -1.84239,-1.11687 -0.61477,-0.15938 -1.21397,-0.42047 -1.33157,-0.58021 -0.23688,-0.321779 -2.56345,-1.68687 -5.45387,-3.199997 -1.03753,-0.543147 -1.94931,-1.133682 -2.02615,-1.312299 -0.0768,-0.178618 -0.33132,-0.32476 -0.56547,-0.32476 -0.51373,0 -3.40147,-1.360153 -3.69647,-1.741073 -0.33746,-0.435747 -1.84115,-1.001131 -2.41042,-0.906314 -0.28821,0.048 -0.52402,-0.116122 -0.52402,-0.364718 0,-0.248597 -0.4716,-0.451995 -1.04802,-0.451995 -0.5764,0 -1.04801,-0.17213 -1.04801,-0.38251 0,-0.21038 -0.42443,-0.525165 -0.9432,-0.699523 -0.51877,-0.174356 -1.03754,-0.369436 -1.15281,-0.433511 -0.1153,-0.06407 -0.63407,-0.259155 -1.15284,-0.433512 -0.51876,-0.174357 -0.9432,-0.464238 -0.9432,-0.64418 0,-0.179942 -0.75457,-0.451802 -1.67683,-0.604133 -0.92224,-0.152331 -1.67681,-0.469519 -1.67681,-0.704862 0,-0.235343 -0.47162,-0.427895 -1.04802,-0.427895 -0.57641,0 -1.04802,-0.194856 -1.04802,-0.433013 0,-0.238156 -0.46047,-0.433012 -1.02327,-0.433012 -0.5628,0 -1.14176,-0.198034 -1.28658,-0.440076 -0.14483,-0.242042 -0.43892,-0.32797 -0.65355,-0.190952 -0.21462,0.137019 -0.39023,0.04277 -0.39023,-0.209443 0,-0.252211 -0.43389,-0.458567 -0.96418,-0.458567 -0.5303,0 -1.14338,-0.160421 -1.36243,-0.356491 -0.21903,-0.19607 -1.53009,-0.710504 -2.91347,-1.143188 -1.38337,-0.432683 -2.89252,-0.93958 -3.35364,-1.126437 -0.99209,-0.40201 -2.98911,-0.857697 -4.26208,-0.972537 -0.49963,-0.04508 -1.04984,-0.228096 -1.22268,-0.406714 -0.17285,-0.178617 -0.75442,-0.324759 -1.2924,-0.324759 -0.53798,0 -0.97814,-0.169199 -0.97814,-0.375998 0,-0.354961 -2.1983,-0.850445 -4.68569,-1.056128 -0.61733,-0.05105 -1.26187,-0.236842 -1.43228,-0.412875 -0.17042,-0.176034 -0.83322,-0.320062 -1.47287,-0.320062 -0.63966,0 -1.26251,-0.166303 -1.38413,-0.369563 -0.12161,-0.203259 -1.5004,-0.498963 -3.06399,-0.657119 -3.66755,-0.370975 -4.22473,-0.47288 -4.5774,-0.837173 -0.16039,-0.165664 -1.28658,-0.301208 -2.50263,-0.301208 -1.21606,0 -2.31565,-0.174847 -2.4435,-0.38855 -0.22266,-0.372128 -10.79559,-1.175173 -12.66755,-0.962136 -0.49673,0.05653 -1.02664,-0.103575 -1.17755,-0.355795 -0.37787,-0.631538 -23.12568,-0.635812 -23.50348,-0.0044 -0.15467,0.25851 -1.83583,0.459957 -3.90239,0.467611 -5.18082,0.01918 -9.43462,0.382476 -9.89777,0.845308 -0.21904,0.218888 -1.38691,0.397978 -2.59529,0.397978 -1.20838,0 -2.30145,0.174478 -2.42905,0.387729 -0.12758,0.213251 -1.78935,0.527129 -3.69277,0.697506 -1.90345,0.170378 -3.64946,0.456001 -3.88002,0.634717 -0.23057,0.178717 -1.17377,0.463433 -2.09603,0.632701 -0.92225,0.169269 -2.05411,0.385864 -2.51524,0.481322 -0.46112,0.09546 -1.64013,0.301944 -2.62003,0.458858 -0.9799,0.156913 -1.78162,0.454496 -1.78162,0.661294 0,0.2068 -0.46048,0.375999 -1.02327,0.375999 -0.5628,0 -1.1284,0.175683 -1.25687,0.390406 -0.12847,0.214723 -1.36613,0.526179 -2.75033,0.692125 -1.38421,0.165946 -2.62185,0.477403 -2.75033,0.692126 -0.12847,0.214723 -0.69406,0.390406 -1.25686,0.390406 -0.5628,0 -1.02328,0.172731 -1.02328,0.383846 0,0.211117 -0.84449,0.514658 -1.87664,0.674538 -1.03217,0.15988 -1.98652,0.474288 -2.12078,0.698684 -0.13426,0.224398 -0.70459,0.407995 -1.26739,0.407995 -0.5628,0 -1.02327,0.186026 -1.02327,0.413391 0,0.227366 -0.66234,0.541739 -1.47185,0.698607 -0.80952,0.156869 -1.57522,0.457981 -1.70157,0.66914 -0.12633,0.211158 -0.69018,0.383925 -1.25299,0.383925 -0.56279,0 -1.02327,0.192552 -1.02327,0.427895 0,0.235343 -0.75457,0.552531 -1.67682,0.704862 -0.92225,0.152331 -1.67682,0.424191 -1.67682,0.604133 0,0.179942 -0.42445,0.469823 -0.94322,0.64418 -0.51876,0.174357 -1.03753,0.369437 -1.15281,0.433512 -0.11528,0.06407 -0.63404,0.259155 -1.15281,0.433511 -0.51877,0.174358 -0.94322,0.489143 -0.94322,0.699523 0,0.21038 -0.46046,0.38251 -1.02327,0.38251 -0.56279,0 -1.13089,0.179864 -1.26242,0.399698 -0.13153,0.219833 -0.80292,0.5276 -1.49197,0.683924 -0.68904,0.156324 -1.2528,0.417632 -1.2528,0.580686 0,0.322545 -3.09907,1.799792 -3.77574,1.799792 -0.22897,0 -0.41632,0.151961 -0.41632,0.337689 0,0.18573 -0.94322,0.715764 -2.09603,1.177855 -1.15281,0.462092 -2.09603,0.982985 -2.09603,1.157541 0,0.174554 -0.70741,0.657359 -1.57202,1.072899 -0.86461,0.415539 -1.66634,0.863107 -1.78162,0.994596 -0.31322,0.35724 -1.70334,1.20451 -3.35365,2.04403 -0.80697,0.41051 -1.61807,1.00047 -1.80245,1.31101 -0.18438,0.31055 -0.70315,0.56463 -1.15282,0.56463 -0.44966,0 -0.81757,0.18571 -0.81757,0.4127 0,0.22698 -0.70742,0.75736 -1.57204,1.17862 -0.86461,0.42127 -2.00503,1.20983 -2.53428,1.75237 -0.52925,0.54254 -1.23665,0.98644 -1.57202,0.98644 -0.33536,0 -0.60976,0.1756 -0.60976,0.39024 0,0.33401 -2.33209,2.04166 -3.53425,2.58791 -0.21462,0.0975 -0.80218,0.63646 -1.30569,1.19765 -0.50351,0.56119 -1.05955,1.02035 -1.23564,1.02035 -0.33227,0 -2.13725,1.49742 -5.61093,4.65488 -1.11354,1.01217 -2.16696,1.84031 -2.34094,1.84031 -0.17398,0 -1.33742,1.0717 -2.58541,2.38156 -1.248,1.30987 -2.42692,2.38157 -2.61982,2.38157 -0.45555,0 -11.94419,11.95611 -12.17077,12.666 -0.095,0.29749 -1.17964,1.51841 -2.41043,2.71316 -1.2308,1.19475 -2.2378,2.37437 -2.2378,2.62139 0,0.24701 -0.66025,1.11013 -1.46722,1.91803 -0.80697,0.80791 -1.46722,1.69819 -1.46722,1.97839 0,0.28022 -0.63348,1.07013 -1.40772,1.75537 -0.77425,0.68524 -1.54153,1.68431 -1.70508,2.22016 -0.16353,0.53585 -0.47328,0.97428 -0.6883,0.97428 -0.21502,0 -0.39096,0.26209 -0.39096,0.58241 0,0.32033 -0.39893,0.95361 -0.88651,1.40729 -0.4876,0.45369 -1.05308,1.21459 -1.25662,1.69091 -0.54085,1.26558 -1.3291,2.49519 -2.07801,3.24149 -0.36185,0.36059 -0.7851,0.94791 -0.94056,1.30515 -0.33357,0.76657 -1.1257,2.04051 -1.86342,2.99686 -0.29009,0.37605 -0.55141,0.8786 -0.5807,1.11675 -0.0294,0.23816 -0.39242,0.73685 -0.80693,1.10819 -0.41451,0.37135 -0.88105,1.19949 -1.03677,1.8403 -0.15569,0.64082 -0.45128,1.16513 -0.65686,1.16513 -0.20556,0 -0.37375,0.38972 -0.37375,0.86603 0,0.47631 -0.17063,0.86602 -0.37916,0.86602 -0.20852,0 -1.00168,1.31528 -1.76256,2.92284 -0.76088,1.60755 -1.63041,3.23344 -1.93228,3.61306 -0.66455,0.83572 -3.0525,5.60595 -3.0525,6.09775 0,0.64029 -1.45042,3.82083 -1.74241,3.82083 -0.15785,0 -0.41082,0.58233 -0.56217,1.29407 -0.15134,0.71175 -0.44929,1.40523 -0.66212,1.5411 -0.21282,0.13587 -0.38695,0.72267 -0.38695,1.304 0,0.58134 -0.18009,1.05699 -0.4002,1.05699 -0.22013,0 -0.5303,0.7307 -0.68929,1.62379 -0.15898,0.89309 -0.40333,1.72122 -0.54299,1.8403 -0.55762,0.47543 -1.25973,2.14172 -1.53041,3.63209 -0.15719,0.8655 -0.45305,1.6804 -0.65748,1.81091 -0.20442,0.1305 -0.37169,0.70142 -0.37169,1.2687 0,0.56728 -0.17774,1.14488 -0.39498,1.28357 -0.21724,0.13869 -0.52162,1.12447 -0.67641,2.19062 -0.15478,1.06616 -0.44864,1.93847 -0.65303,1.93847 -0.20439,0 -0.37161,0.47564 -0.37161,1.05697 0,0.58134 -0.16659,1.16333 -0.37021,1.29332 -0.20361,0.12998 -0.50015,1.31062 -0.65896,2.62363 -0.15882,1.31301 -0.46384,2.38729 -0.67781,2.38729 -0.21397,0 -0.38903,0.68199 -0.38903,1.51554 0,0.83356 -0.16428,1.51555 -0.36505,1.51555 -0.20078,0 -0.49474,1.3595 -0.65324,3.02113 -0.15851,1.66162 -0.46585,3.13454 -0.68297,3.27315 -0.21714,0.13861 -0.39478,1.01994 -0.39478,1.95851 0,0.93857 -0.16282,1.7065 -0.36181,1.7065 -0.37121,0 -0.96034,4.73664 -0.90211,7.25296 0.0178,0.77401 -0.16199,1.40729 -0.39977,1.40729 -0.25123,0 -0.43234,1.14277 -0.43234,2.72798 0,1.60503 -0.21569,2.95078 -0.524,3.26925 -0.76113,0.78619 -0.76113,38.74785 0,39.53404 0.30831,0.31846 0.524,1.66422 0.524,3.26925 0,1.50038 0.16621,2.72797 0.36936,2.72797 0.20314,0 0.50369,1.85086 0.66789,4.11302 0.16419,2.26215 0.46958,4.22222 0.67866,4.35568 0.20906,0.13347 0.38012,1.01059 0.38012,1.94916 0,0.93858 0.16155,1.7065 0.35901,1.7065 0.19745,0 0.4856,1.41271 0.64031,3.13934 0.15472,1.72664 0.46477,3.2043 0.68901,3.28368 0.22423,0.0794 0.40771,0.8101 0.40771,1.6238 0,0.8137 0.17093,1.47946 0.37985,1.47946 0.20894,0 0.51505,1.01521 0.68027,2.25604 0.1652,1.24081 0.44387,2.55609 0.61924,2.92283 0.76812,1.60638 1.22586,2.93439 1.49356,4.3332 0.15803,0.82572 0.42997,1.8 0.60432,2.16506 0.69507,1.45537 1.20081,2.89149 1.45366,4.12782 0.33601,1.64303 1.18032,3.68061 1.52514,3.68061 0.14481,0 0.38395,0.77943 0.53142,1.73205 0.14748,0.95263 0.45455,1.73205 0.6824,1.73205 0.22784,0 0.41424,0.48715 0.41424,1.08254 0,0.59539 0.18865,1.08253 0.4192,1.08253 0.23056,0 0.41922,0.31093 0.41922,0.69096 0,0.76427 1.28631,3.33961 1.78162,3.567 0.17292,0.0794 0.3144,0.51647 0.3144,0.9713 0,1.03966 1.34608,4.29701 1.77572,4.29701 0.17617,0 0.32031,0.21413 0.32031,0.47583 0,0.80448 1.38998,3.61752 1.96861,3.98407 0.30065,0.19046 0.54663,0.72631 0.54663,1.19078 0,0.46449 0.18864,0.84452 0.41921,0.84452 0.23055,0 0.4192,0.29228 0.4192,0.64951 0,0.35724 0.1682,0.64952 0.37375,0.64952 0.20558,0 0.50252,0.53586 0.65989,1.19079 0.15737,0.65493 0.62774,1.58049 1.04527,2.05681 0.41755,0.47631 0.90216,1.35316 1.07691,1.94855 0.17477,0.59539 0.63398,1.37482 1.02049,1.73205 0.38652,0.35724 0.82994,0.94181 0.98539,1.29904 0.39169,0.90013 1.23531,2.23155 1.85999,2.93548 0.2882,0.32476 0.52401,0.86884 0.52401,1.20907 0,0.34023 0.18863,0.61859 0.4192,0.61859 0.23056,0 0.41921,0.25832 0.41921,0.57404 0,0.31572 0.4716,1.03168 1.04801,1.59102 0.57641,0.55935 1.04802,1.27531 1.04802,1.59102 0,0.31573 0.18505,0.57405 0.41122,0.57405 0.22617,0 0.52048,0.4497 0.65403,0.99932 0.13355,0.54963 0.70308,1.35635 1.26561,1.7927 0.56252,0.43637 1.02278,1.02015 1.02278,1.29731 0,0.27715 0.66025,1.16494 1.46722,1.97284 0.80697,0.80791 1.46722,1.70884 1.46722,2.00207 0,0.29324 0.43661,0.8883 0.97027,1.32235 0.53363,0.43407 1.33536,1.37377 1.78161,2.08824 0.44626,0.71447 1.63041,2.12718 2.63147,3.13934 1.00105,1.01217 1.66338,1.8403 1.47184,1.8403 -0.19154,0 2.8545,3.31255 6.76899,7.36122 3.91449,4.04867 7.28263,7.36121 7.48475,7.36121 0.20212,0 1.26709,0.97428 2.36659,2.16506 1.0995,1.19079 2.20809,2.16506 2.46353,2.16506 0.25544,0 0.96869,0.58458 1.58498,1.29905 0.6163,0.71447 1.33533,1.29904 1.59782,1.29904 0.26251,0 1.11723,0.68199 1.89937,1.51554 0.78214,0.83355 1.65436,1.51554 1.93824,1.51554 0.28388,0 0.86754,0.43842 1.29703,0.97428 0.82015,1.02326 1.86123,1.80227 3.26242,2.44117 0.46113,0.21025 1.19776,0.79435 1.63698,1.298 0.43923,0.50364 1.01067,0.91571 1.26989,0.91571 0.25921,0 0.74322,0.38972 1.07558,0.86603 0.33236,0.47632 0.83214,0.86602 1.11062,0.86602 0.27848,0 0.75559,0.25096 1.06027,0.5577 0.30467,0.30673 1.26135,0.90045 2.12597,1.31936 0.86461,0.4189 1.57202,0.90116 1.57202,1.07167 0,0.31013 0.19528,0.43237 3.20831,2.00836 0.88691,0.46391 1.70687,0.97349 1.82216,1.13242 0.11528,0.15893 0.6812,0.43931 1.25761,0.62308 0.57641,0.18377 1.58126,0.79459 2.233,1.3574 0.65173,0.56281 1.53207,1.02328 1.95629,1.02328 0.42422,0 0.83419,0.14614 0.91105,0.32476 0.21492,0.49951 2.70541,1.8403 3.41833,1.8403 0.3487,0 0.69687,0.14615 0.77373,0.32476 0.22014,0.51163 2.71336,1.8403 3.45325,1.8403 0.36792,0 0.6704,0.14615 0.67221,0.32477 0.004,0.34344 1.9969,1.40728 2.63699,1.40728 0.49337,0 3.37738,1.38775 3.64782,1.75529 0.11528,0.15668 0.91702,0.41923 1.78163,0.58345 0.86461,0.16422 1.57201,0.48462 1.57201,0.71198 0,0.22736 0.42445,0.41959 0.94322,0.42715 0.51876,0.007 1.30939,0.29987 1.75694,0.64953 0.44755,0.34966 1.15753,0.63575 1.57772,0.63575 0.42018,0 1.1387,0.19485 1.59669,0.43301 0.458,0.23815 1.20178,0.6242 1.65283,0.85788 0.45105,0.23368 1.58291,0.55087 2.51524,0.70488 0.93232,0.15399 1.69512,0.44994 1.69512,0.65766 0,0.20771 0.46048,0.37767 1.02328,0.37767 0.5628,0 1.13071,0.17956 1.26202,0.39903 0.13132,0.21947 1.46295,0.53445 2.95918,0.69997 1.49624,0.1655 2.72043,0.47307 2.72043,0.68349 0,0.21041 0.45588,0.38257 1.01309,0.38257 0.55719,0 1.07595,0.1895 1.15281,0.42113 0.0768,0.23161 1.50739,0.55188 3.17897,0.71169 1.67158,0.15982 3.03924,0.45745 3.03924,0.66141 0,0.20395 0.5548,0.37083 1.23288,0.37083 0.67808,0 1.33903,0.17742 1.46878,0.39428 0.12975,0.21685 1.84147,0.53242 3.80382,0.70127 1.96235,0.16884 3.67056,0.47855 3.79603,0.68825 0.12546,0.20969 1.21679,0.38126 2.42517,0.38126 1.20838,0 2.37625,0.18491 2.59529,0.41093 0.21904,0.22602 3.37603,0.54806 7.01556,0.71565 3.63952,0.16759 6.7161,0.46981 6.83683,0.6716 0.33474,0.55946 23.11717,0.46666 23.45354,-0.0955 z"
     id="path4501"
     inkscape:connector-curvature="0"
     inkscape:export-xdpi="96"
     inkscape:export-ydpi="96" />
  <path
     style="opacity:1;fill:#000000;fill-opacity:1;stroke:#000600;stroke-width:3.35068488;stroke-linecap:butt;stroke-linejoin:miter;stroke-miterlimit:4;stroke-dasharray:none;stroke-dashoffset:0;stroke-opacity:1"
     d="m 521.77943,208.27905 c 0,-0.24285 -1.15981,-0.43301 -2.641,-0.43301 -1.45255,0 -2.82921,-0.19441 -3.05926,-0.43204 -0.23004,-0.23761 -1.59705,-0.53391 -3.0378,-0.65843 -1.44075,-0.12452 -2.98803,-0.41725 -3.43844,-0.6505 -0.45038,-0.23325 -1.1936,-0.61895 -1.6516,-0.8571 -0.458,-0.23816 -1.07629,-0.43301 -1.37398,-0.43301 -0.70575,0 -5.47196,-2.55503 -5.80638,-3.11263 -0.14177,-0.23639 -0.69331,-0.65575 -1.22564,-0.9319 -1.2141,-0.62986 -2.91824,-3.90171 -2.91824,-5.60288 0,-1.03906 0.10971,-1.18989 0.57525,-0.79081 0.47211,0.40472 0.56738,0.18313 0.53136,-1.2358 -0.0339,-1.33227 0.17947,-1.90516 0.9296,-2.49694 0.53542,-0.42239 1.47532,-1.16595 2.08868,-1.65234 1.62642,-1.2898 5.46656,-3.22926 6.39394,-3.22926 0.43984,0 0.79972,-0.1531 0.79972,-0.34023 0,-0.18712 0.33012,-0.36544 0.73361,-0.39628 1.58712,-0.12126 3.68811,-0.65415 4.06629,-1.03134 0.21904,-0.21847 1.11509,-0.39722 1.99123,-0.39722 0.87613,0 1.59298,-0.14897 1.59298,-0.33105 0,-1.05731 24.41494,-1.00798 25.44053,0.0514 0.14891,0.15382 0.99387,0.27967 1.87771,0.27967 0.88382,0 1.60695,0.19486 1.60695,0.43301 0,0.23816 0.64912,0.43302 1.44248,0.43302 0.79337,0 1.54585,0.17276 1.67219,0.38392 0.12635,0.21116 0.88408,0.51073 1.68386,0.66571 1.89288,0.3668 3.65623,1.32211 3.26484,1.76875 -0.16944,0.19335 -0.0678,0.20856 0.22574,0.0338 0.6344,-0.37761 3.02945,0.62817 3.02945,1.2722 0,0.24689 0.58316,0.67626 1.29592,0.95415 0.8418,0.32821 1.18635,0.6884 0.98324,1.02786 -0.19925,0.33302 -0.13603,0.40983 0.17425,0.21174 0.28201,-0.18002 0.60515,0.0196 0.76781,0.47437 0.15447,0.43187 0.45646,0.90713 0.67107,1.05614 0.71683,0.49772 0.70063,4.40016 -0.0248,6.00121 -0.73548,1.62292 -2.70127,3.90366 -3.36462,3.90366 -0.22006,0 -0.63495,0.29229 -0.92198,0.64952 -0.28702,0.35724 -0.95465,0.64952 -1.48361,0.64952 -0.52897,0 -1.033,0.22079 -1.1201,0.49065 -0.0871,0.26986 -0.76048,0.51343 -1.49642,0.54127 -0.76462,0.0289 -1.44322,0.32898 -1.58336,0.70013 -0.20384,0.53977 -0.35599,0.5032 -0.90054,-0.2165 -0.52802,-0.69787 -0.60617,-0.71889 -0.40242,-0.10826 0.16559,0.49626 0.0404,0.75777 -0.36281,0.75777 -0.3386,0 -0.61565,0.17823 -0.61565,0.39607 0,0.21784 -1.41482,0.53301 -3.14404,0.7004 -1.72922,0.16737 -3.14404,0.49291 -3.14404,0.7234 0,0.24198 -1.14999,0.35773 -2.72123,0.27389 -1.89986,-0.10138 -2.7816,0.0182 -2.92128,0.39607 -0.25323,0.68512 -14.47936,0.79148 -14.47936,0.10824 z m 20.54107,-2.59807 c 0,-0.23816 -0.19978,-0.43301 -0.44395,-0.43301 -0.24417,0 -0.32735,0.19485 -0.18485,0.43301 0.1425,0.23815 0.34226,0.43301 0.44394,0.43301 0.10167,0 0.18486,-0.19486 0.18486,-0.43301 z m -5.86888,-0.80093 c 0,-0.20236 1.91789,-0.49775 4.26196,-0.65643 2.34408,-0.15868 4.48538,-0.48004 4.75845,-0.71413 0.27307,-0.23408 0.98258,-0.46718 1.57671,-0.51797 0.59411,-0.0508 0.98834,-0.24586 0.87608,-0.43349 -0.11227,-0.18763 0.32577,-0.34235 0.97343,-0.34382 0.64765,-0.002 1.72491,-0.29751 2.39389,-0.65788 0.66898,-0.36036 1.61218,-0.55582 2.09602,-0.43434 0.48384,0.12148 0.6439,0.109 0.3557,-0.0277 -0.70383,-0.3339 -0.66749,-1.04245 0.0534,-1.04245 0.31761,0 0.8232,-0.30584 1.12353,-0.67962 0.30033,-0.3738 0.8829,-0.58864 1.29461,-0.47742 0.41171,0.1112 0.71543,0.076 0.67494,-0.0781 -0.0405,-0.15419 0.26745,-1.00466 0.68436,-1.88993 0.64611,-1.37194 0.67975,-1.79219 0.22794,-2.84652 -0.29154,-0.68033 -1.16905,-1.66961 -1.95003,-2.19842 -1.13462,-0.76826 -1.36463,-1.1534 -1.14462,-1.91661 0.25688,-0.89115 0.23636,-0.9025 -0.30614,-0.16951 -0.55519,0.75012 -0.68509,0.73101 -2.873,-0.42258 -1.26034,-0.66453 -2.44737,-1.40778 -2.63785,-1.65167 -0.22884,-0.29303 -0.42042,-0.25371 -0.56477,0.1159 -0.15491,0.39663 -0.37151,0.42814 -0.7446,0.10829 -0.28937,-0.24806 -1.68585,-0.57624 -3.10327,-0.72927 -1.41743,-0.15303 -2.57713,-0.4287 -2.57713,-0.61262 0,-1.25283 -23.82477,-1.23469 -25.36194,0.0193 -0.23057,0.18809 -1.59857,0.48029 -3.04001,0.64933 -1.44142,0.16904 -2.72589,0.48303 -2.85437,0.69775 -0.12847,0.21473 -0.77725,0.39041 -1.44173,0.39041 -0.66447,0 -1.31575,0.17986 -1.44728,0.3997 -0.13153,0.21983 -0.80292,0.5276 -1.49196,0.68392 -0.68905,0.15632 -1.2528,0.4751 -1.2528,0.70839 0,0.23328 -0.17561,0.31205 -0.39025,0.17503 -0.21464,-0.13702 -0.51063,-0.0479 -0.65777,0.19802 -0.14715,0.24592 -0.47229,0.31643 -0.72255,0.15667 -0.27275,-0.17413 -0.33432,-0.0888 -0.1537,0.2131 0.40848,0.68272 -1.51732,1.43169 -1.97088,0.7665 -0.22008,-0.32277 -0.30334,-0.26793 -0.24717,0.16277 0.0466,0.35723 -0.1359,1.20272 -0.40554,1.87885 -0.51676,1.29583 -0.52156,3.82628 -0.007,3.49756 0.16613,-0.10606 0.40825,0.15273 0.53803,0.57509 0.24303,0.79097 0.56594,1.01791 3.54116,2.48879 0.95961,0.47441 1.67183,1.05897 1.58271,1.29903 -0.0906,0.244 0.69248,0.49463 1.77571,0.56835 1.06576,0.0725 2.11695,0.3161 2.33599,0.54126 0.21903,0.22517 0.81641,0.4094 1.32748,0.4094 0.51108,0 0.99213,0.19106 1.06898,0.42458 0.0768,0.23353 2.07998,0.55555 4.45139,0.71562 2.37142,0.16005 4.41046,0.45613 4.5312,0.65794 0.28733,0.48021 14.84227,0.47923 14.84227,-9e-4 z m -35.52768,-5.11501 c -0.2882,-0.12013 -0.75981,-0.12013 -1.04801,0 -0.28821,0.12012 -0.0524,0.2184 0.52401,0.2184 0.57641,0 0.81221,-0.0983 0.524,-0.2184 z m 53.97273,-11.83758 c 0,-0.23815 -0.0833,-0.43301 -0.18486,-0.43301 -0.10167,0 -0.30146,0.19486 -0.44395,0.43301 -0.14249,0.23816 -0.0593,0.43302 0.18486,0.43302 0.24418,0 0.44395,-0.19486 0.44395,-0.43302 z m -36.8901,-4.33013 c 0,-0.23815 -0.0832,-0.43301 -0.18485,-0.43301 -0.10168,0 -0.30146,0.19486 -0.44396,0.43301 -0.14249,0.23816 -0.0593,0.43302 0.18486,0.43302 0.24418,0 0.44395,-0.19486 0.44395,-0.43302 z"
     id="path4503"
     inkscape:connector-curvature="0"
     inkscape:export-xdpi="96"
     inkscape:export-ydpi="96" />
  <path
     style="opacity:1;fill:#000000;fill-opacity:1;stroke:#000600;stroke-width:3.35068488;stroke-linecap:butt;stroke-linejoin:miter;stroke-miterlimit:4;stroke-dasharray:none;stroke-dashoffset:0;stroke-opacity:1"
     d="m 329.18305,216.12112 c -0.12675,-0.21184 -0.84529,-0.48828 -1.59676,-0.61431 -0.75147,-0.12603 -1.74359,-0.2937 -2.20472,-0.3726 -0.46113,-0.0789 -0.93272,-0.25175 -1.04801,-0.38409 -0.11527,-0.13234 -1.0691,-0.65144 -2.11959,-1.15356 -1.05048,-0.50211 -2.1746,-1.24226 -2.498,-1.64478 -0.32341,-0.40252 -1.02505,-0.90349 -1.55921,-1.11326 -0.53414,-0.20977 -1.09811,-0.72533 -1.25325,-1.14568 -0.15514,-0.42035 -0.71624,-1.24942 -1.24688,-1.84238 -0.53064,-0.59296 -0.9648,-1.32366 -0.9648,-1.62379 0,-0.30013 -0.14147,-0.54693 -0.3144,-0.54843 -0.47109,-0.005 -1.78163,-2.54949 -1.78163,-3.46037 0,-0.43717 -0.2358,-0.87604 -0.524,-0.97526 -0.38554,-0.13274 -0.52401,-1.76328 -0.52401,-6.17031 0,-4.40695 0.13848,-6.03761 0.52401,-6.17044 0.2882,-0.0993 0.524,-0.62759 0.524,-1.17397 0,-0.54639 0.28297,-1.236 0.62881,-1.53248 0.34585,-0.29648 0.62882,-0.80748 0.62882,-1.13555 0,-0.32808 0.18863,-0.5965 0.4192,-0.5965 0.23056,0 0.42011,-0.24357 0.4212,-0.54127 8.8e-4,-0.29769 0.66136,-1.28282 1.46722,-2.18916 0.80588,-0.90634 1.46522,-1.8319 1.46522,-2.0568 0,-0.22491 0.26928,-0.40892 0.59838,-0.40892 0.32911,0 0.96935,-0.48714 1.42275,-1.08253 0.45341,-0.5954 0.93741,-1.08253 1.07557,-1.08253 0.55846,0 3.61059,-1.52416 3.61059,-1.80304 0,-0.16485 1.04002,-0.43393 2.31117,-0.59798 1.27114,-0.16405 2.41414,-0.47036 2.53998,-0.68068 0.29843,-0.49878 6.34829,-0.49878 6.64673,0 0.12584,0.21032 1.26883,0.51663 2.53997,0.68068 1.27115,0.16405 2.31117,0.43313 2.31117,0.59798 0,0.29759 3.06946,1.80304 3.67624,1.80304 0.17425,0 0.67098,0.48713 1.10385,1.08253 0.43286,0.59539 1.12518,1.08253 1.53847,1.08253 0.41329,0 0.88036,0.41958 1.03793,0.9324 0.15758,0.51281 0.64342,1.34094 1.07965,1.8403 1.97356,2.25913 2.90607,3.73636 3.14829,4.9874 0.14389,0.74315 0.4259,1.45605 0.62668,1.58423 0.20078,0.12818 0.36506,0.79463 0.36506,1.48099 0,0.68635 0.18865,1.36835 0.41921,1.51554 0.23057,0.14719 0.4192,1.70603 0.4192,3.4641 0,1.75807 -0.18863,3.31691 -0.4192,3.4641 -0.23056,0.14719 -0.41921,0.82919 -0.41921,1.51554 0,0.68636 -0.16428,1.35281 -0.36506,1.48099 -0.20078,0.12817 -0.48279,0.84108 -0.62668,1.58423 -0.24063,1.24278 -1.16338,2.71002 -3.11417,4.95169 -0.41745,0.47971 -0.88575,1.21334 -1.04064,1.6303 -0.15489,0.41695 -0.75807,0.9452 -1.3404,1.17389 -0.58231,0.22869 -1.05875,0.59224 -1.05875,0.8079 0,0.75214 -6.98269,3.95945 -8.62017,3.95945 -0.53464,0 -1.08867,0.19487 -1.23116,0.43302 -0.32054,0.5357 -6.36088,0.57897 -6.67867,0.0479 z m 6.88827,-3.07893 c 0,-0.23815 0.66025,-0.43301 1.46722,-0.43301 0.80697,0 1.46723,-0.19485 1.46723,-0.43301 0,-0.23816 0.20728,-0.43302 0.46064,-0.43302 0.87497,0 3.52481,-1.46962 4.445,-2.46523 0.50776,-0.54938 1.11421,-0.99887 1.34767,-0.99887 0.23346,0 0.64936,-0.43842 0.92423,-0.97428 0.27487,-0.53585 0.82045,-1.26656 1.21241,-1.62379 0.39194,-0.35724 0.84664,-1.08794 1.01046,-1.6238 0.16379,-0.53585 0.47374,-0.97427 0.68876,-0.97427 0.21503,0 0.39096,-0.47091 0.39096,-1.04645 0,-0.57555 0.23581,-1.12764 0.52401,-1.22687 0.38291,-0.13184 0.52401,-1.67672 0.52401,-5.73742 0,-4.0607 -0.1411,-5.60558 -0.52401,-5.73742 -0.2882,-0.0992 -0.52401,-0.62746 -0.52401,-1.17385 0,-0.54639 -0.28296,-1.236 -0.62881,-1.53248 -0.34584,-0.29648 -0.6288,-0.7359 -0.6288,-0.9765 0,-0.24061 -0.34768,-0.7526 -0.77261,-1.13777 -0.42494,-0.38517 -0.9975,-1.13873 -1.27237,-1.67459 -0.27487,-0.53585 -0.69077,-0.97428 -0.92423,-0.97428 -0.23346,0 -0.83991,-0.44948 -1.34767,-0.99886 -1.00272,-1.0849 -3.59507,-2.46523 -4.62985,-2.46523 -0.35504,0 -0.76211,-0.19486 -0.90461,-0.43302 -0.1425,-0.23816 -0.71956,-0.43301 -1.28236,-0.43301 -0.5628,0 -1.02327,-0.19486 -1.02327,-0.43301 0,-0.25472 -1.46722,-0.43301 -3.56325,-0.43301 -2.09603,0 -3.56325,0.17829 -3.56325,0.43301 0,0.23815 -0.4716,0.43301 -1.04801,0.43301 -0.57641,0 -1.04802,0.16995 -1.04802,0.37767 0,0.20772 -0.75457,0.50231 -1.67681,0.65463 -0.92226,0.15234 -1.67683,0.46952 -1.67683,0.70487 0,0.23534 -0.30133,0.42789 -0.66964,0.42789 -1.13791,0 -5.60146,5.23547 -7.0142,8.22724 -1.24007,2.6261 -1.32909,3.12488 -1.32909,7.44826 0,3.12982 0.17008,4.8092 0.52402,5.1745 0.2882,0.29745 0.524,0.98899 0.524,1.53676 0,0.54775 0.17594,0.99593 0.39096,0.99593 0.21502,0 0.50094,0.35794 0.63537,0.79543 0.33951,1.10495 5.61568,6.56578 6.34377,6.56578 0.32714,0 0.59481,0.2157 0.59481,0.47934 0,0.26364 0.28296,0.36717 0.62881,0.23009 0.34584,-0.13708 0.62881,-0.0605 0.62881,0.17018 0,0.23069 0.4716,0.41942 1.04801,0.41942 0.57641,0 1.04801,0.19486 1.04801,0.43302 0,0.23816 0.46048,0.43301 1.02327,0.43301 0.56281,0 1.13987,0.19486 1.28237,0.43301 0.1425,0.23816 1.75709,0.43301 3.58798,0.43301 1.9398,0 3.32891,-0.18069 3.32891,-0.43301 z"
     id="path4505"
     inkscape:connector-curvature="0"
     inkscape:export-xdpi="96"
     inkscape:export-ydpi="96" />
  <path
     style="opacity:1;fill:#000000;fill-opacity:1;stroke:#000600;stroke-width:3.88245964;stroke-linecap:butt;stroke-linejoin:miter;stroke-miterlimit:4;stroke-dasharray:none;stroke-dashoffset:0;stroke-opacity:1"
     d="m 527.55994,289.28564 c -0.30755,-0.73824 -0.78555,-1.86546 -1.06224,-2.50496 -0.27667,-0.63949 -0.82856,-2.07837 -1.2264,-3.19749 -0.39785,-1.11912 -0.82751,-2.16558 -0.9548,-2.32545 -0.35767,-0.44921 -1.14056,-2.32854 -2.35106,-5.64377 -0.60803,-1.6652 -1.37023,-3.33232 -1.69378,-3.7047 -0.32355,-0.3724 -0.58826,-1.03746 -0.58826,-1.47794 0,-0.67827 -17.44065,-0.80086 -113.94009,-0.80086 -88.06114,0 -114.05436,-0.15844 -114.44315,-0.69762 -0.67178,-0.93164 -0.63501,-2.10923 0.0976,-3.12523 0.51946,-0.7204 20.01708,-0.813 144.26585,-0.68518 136.30182,0.14024 143.68894,0.19996 144.12797,1.16521 0.33749,0.74197 0.3375,1.29278 9e-5,2.03475 -0.4282,0.94162 -1.91898,1.02866 -20.01494,1.16849 -16.55102,0.1279 -19.55225,0.27768 -19.55225,0.97585 0,0.45363 -0.23582,1.18152 -0.52402,1.61756 -0.62467,0.94509 -1.46829,2.73267 -1.85999,3.94117 -0.15545,0.47962 -0.57869,1.26815 -0.94054,1.75228 -0.71471,0.95622 -1.47592,2.52384 -2.11329,4.35203 -0.22296,0.6395 -1.21944,2.7324 -2.2144,4.6509 -1.46738,2.8294 -2.05871,3.52209 -3.13107,3.66768 -1.01947,0.13843 -1.45003,-0.12769 -1.88123,-1.16272 z m 2.84314,-5.37024 c 0.32937,-0.45678 0.59887,-1.09214 0.59887,-1.41189 0,-0.31974 0.23579,-0.93811 0.52401,-1.37414 0.71085,-1.07547 1.48935,-2.7972 1.98594,-4.39209 0.22654,-0.72763 0.6977,-1.47506 1.047,-1.66096 0.34931,-0.18588 0.63511,-0.67037 0.63511,-1.07663 0,-0.40627 0.28295,-1.06435 0.62879,-1.46239 0.34586,-0.39805 0.62882,-1.21493 0.62882,-1.81528 0,-1.02086 -0.42072,-1.09155 -6.49769,-1.09155 -3.57372,0 -6.49768,0.21728 -6.49768,0.48285 0,0.7163 1.99044,6.03783 2.40828,6.43864 0.36752,0.35255 1.78377,4.29041 1.78377,4.95976 0,0.35774 1.74988,3.12705 2.02117,3.19863 0.0741,0.0196 0.40424,-0.33817 0.73361,-0.79495 z"
     id="path4507"
     inkscape:connector-curvature="0"
     inkscape:export-xdpi="96"
     inkscape:export-ydpi="96" />
  <path
     style="opacity:1;fill:#ffffff;fill-opacity:1;stroke:#000000;stroke-width:3.63320208;stroke-linecap:butt;stroke-linejoin:miter;stroke-miterlimit:4;stroke-dasharray:none;stroke-dashoffset:0;stroke-opacity:1"
     d="m 414.27787,446.19245 c -11.8348,-1.33525 -20.62756,-2.7779 -26.9126,-4.41563 -45.10146,-11.7523 -82.08114,-37.87881 -107.78462,-76.1509 -37.15678,-55.32586 -41.92837,-126.1049 -12.54094,-186.02522 26.40486,-53.83891 76.14404,-90.895439 135.70419,-101.101897 11.02603,-1.889462 46.28871,-1.625005 57.66987,0.432502 27.11468,4.901836 49.26652,13.803831 71.60677,28.776065 10.11231,6.77719 15.45193,11.14036 25.1213,20.52742 30.85207,29.95129 49.23399,67.66928 55.20704,113.27969 1.80745,13.80175 0.60728,41.60063 -2.40734,55.75992 -3.05364,14.34262 -4.55005,19.46469 -9.40689,32.19901 -8.05877,21.12953 -19.7229,39.98946 -35.75684,57.81584 -5.0648,5.63101 -9.20874,10.71317 -9.20874,11.29368 0,0.58053 -0.79802,1.0555 -1.77336,1.0555 -0.97535,0 -2.59732,0.9212 -3.60437,2.04712 -2.08689,2.3332 -17.13082,13.68939 -23.13505,17.4639 -19.03381,11.96548 -43.0738,21.17811 -65.8218,25.22431 -7.67786,1.36567 -39.90775,2.61397 -46.95662,1.81869 z M 531.36285,292.07939 c 0.89037,-0.47836 3.75218,-5.21165 6.35956,-10.5184 l 4.74072,-9.64863 19.08468,-0.2947 c 15.69297,-0.24233 19.24639,-0.55093 19.99456,-1.73645 1.30664,-2.07045 1.1506,-3.49606 -0.5711,-5.21775 -1.3597,-1.35971 -15.93311,-1.51041 -146.06319,-1.51041 -144.46225,0 -144.55346,9.6e-4 -145.60103,1.95864 -1.40485,2.62498 -0.399,5.39389 2.21388,6.09436 1.17193,0.31418 51.00601,0.63852 110.74239,0.72075 59.73638,0.0823 110.32213,0.41254 112.41278,0.73401 3.77818,0.58093 3.82355,0.63957 7.49609,9.6879 4.28403,10.5549 5.41934,11.75691 9.19066,9.73068 z M 342.71862,215.67175 c 7.93403,-3.62326 13.15002,-11.79374 13.15002,-20.59857 0,-8.23636 -5.38269,-16.92384 -13.05924,-21.07713 -4.31607,-2.33515 -16.29599,-2.24418 -20.80333,0.15797 -7.73981,4.12487 -12.49514,12.07704 -12.49514,20.89518 0,10.48708 5.74068,18.43257 15.99593,22.13944 5.58431,2.01852 10.39936,1.59416 17.21176,-1.51689 z m 204.17921,-7.44399 c 8.53398,-2.25341 13.00725,-4.81504 14.94211,-8.55663 2.2543,-4.35933 1.75671,-7.2232 -1.86636,-10.74189 -5.47142,-5.31378 -13.47243,-7.67074 -27.86689,-8.20912 -13.63849,-0.51011 -20.05016,0.45046 -28.05019,4.20237 -6.17664,2.89678 -8.11595,5.04477 -8.73319,9.67298 -0.63946,4.79482 1.87332,8.0565 8.60683,11.17194 11.64729,5.38897 28.27161,6.34087 42.96769,2.46035 z"
     id="path4539"
     inkscape:connector-curvature="0" />
  <path
     style="opacity:1;fill:#ffffff;fill-opacity:1;stroke:#000000;stroke-width:3.63320208;stroke-linecap:butt;stroke-linejoin:miter;stroke-miterlimit:4;stroke-dasharray:none;stroke-dashoffset:0;stroke-opacity:1"
     d="m 528.39703,276.84965 c -0.266,-0.92512 -0.79525,-2.43896 -1.1761,-3.36408 -0.5859,-1.42317 -0.14658,-1.68203 2.85454,-1.68203 1.95085,0 3.38895,0.32439 3.19578,0.72087 -3.22856,6.62638 -4.01254,7.32207 -4.87422,4.32524 z"
     id="path4541"
     inkscape:connector-curvature="0" />
  <path
     style="opacity:1;fill:#ffffff;fill-opacity:1;stroke:#ff0000;stroke-width:3.63320208;stroke-linecap:butt;stroke-linejoin:miter;stroke-miterlimit:4;stroke-dasharray:none;stroke-dashoffset:0;stroke-opacity:1"
     d="m 327.0336,210.0465 c -4.20054,-1.34665 -9.5661,-7.44773 -10.38398,-11.80742 -1.42796,-7.61169 3.98883,-16.1486 11.84431,-18.66673 3.43899,-1.1024 4.73092,-1.10375 8.1699,-0.009 5.69561,1.81382 11.09038,7.55004 11.47465,12.20092 0.53109,6.42771 -0.72436,10.79304 -4.10805,14.28412 -4.62969,4.77663 -10.36178,6.12483 -16.99683,3.9977 z"
     id="path4553"
     inkscape:connector-curvature="0" />
  <path
     style="opacity:1;fill:#0a0a0a;fill-opacity:1;stroke:#ff0000;stroke-width:3.63320208;stroke-linecap:butt;stroke-linejoin:miter;stroke-miterlimit:4;stroke-dasharray:none;stroke-dashoffset:0;stroke-opacity:1"
     d="m 323.32135,204.1679 c -3.68206,-3.68206 -4.19833,-4.71704 -4.19518,-8.41019 0.009,-10.27486 10.52689,-17.35713 19.15294,-12.89642 4.6439,2.40145 7.75608,6.91828 7.75608,11.25669 0,8.53816 -5.58542,14.24869 -13.93652,14.24869 -4.12444,0 -4.99498,-0.41644 -8.77732,-4.19877 z"
     id="path4555"
     inkscape:connector-curvature="0" />
  <path
     style="opacity:1;fill:#0a0a0a;fill-opacity:1;stroke:#ff0000;stroke-width:3.63320208;stroke-linecap:butt;stroke-linejoin:miter;stroke-miterlimit:4;stroke-dasharray:none;stroke-dashoffset:0;stroke-opacity:1"
     d="m 520.48656,202.87366 c -8.08235,-1.67429 -13.60806,-3.47684 -16.10192,-5.25262 l -2.92632,-2.08372 2.54726,-2.19107 c 3.81561,-3.28205 8.52567,-4.35252 21.56631,-4.90144 12.7018,-0.53466 21.29753,0.59784 26.4725,3.4878 5.91461,3.303 3.55809,6.52337 -6.78265,9.26901 -5.39013,1.43117 -20.88867,2.47715 -24.77518,1.67204 z"
     id="path4557"
     inkscape:connector-curvature="0" />
</svg>
